<mxfile host="app.diagrams.net" modified="2023-01-13T15:45:39.607Z" agent="5.0 (Windows NT 10.0; Win64; x64) AppleWebKit/537.36 (KHTML, like Gecko) Chrome/108.0.0.0 Safari/537.36 Edg/108.0.1462.76" version="20.8.4" etag="JG83cn4H7gE3kLRk5cj_" type="github">
  <diagram id="Gqjt-aGocySODWQNgcJ-" name="第 1 页">
    <mxGraphModel dx="835" dy="465" grid="1" gridSize="10" guides="1" tooltips="1" connect="1" arrows="1" fold="1" page="1" pageScale="1" pageWidth="850" pageHeight="1100" math="0" shadow="0">
      <root>
        <mxCell id="0" />
        <mxCell id="1" parent="0" />
        <mxCell id="IhEL-Qv9K_QajIlyC7i--54" style="edgeStyle=none;rounded=0;jumpStyle=none;jumpSize=6;orthogonalLoop=1;jettySize=auto;html=1;exitX=1;exitY=0.5;exitDx=0;exitDy=0;fontColor=default;startArrow=none;startFill=0;sourcePerimeterSpacing=0;elbow=vertical;" edge="1" parent="1" source="IhEL-Qv9K_QajIlyC7i--26" target="IhEL-Qv9K_QajIlyC7i--27">
          <mxGeometry relative="1" as="geometry" />
        </mxCell>
        <mxCell id="IhEL-Qv9K_QajIlyC7i--26" value="mux" style="rounded=1;whiteSpace=wrap;html=1;labelBackgroundColor=none;fontColor=default;fillColor=#FCFCFC;arcSize=50;rotation=0;verticalAlign=middle;" vertex="1" parent="1">
          <mxGeometry x="100" y="200" width="60" height="120" as="geometry" />
        </mxCell>
        <mxCell id="IhEL-Qv9K_QajIlyC7i--40" style="edgeStyle=none;rounded=0;jumpStyle=none;jumpSize=6;orthogonalLoop=1;jettySize=auto;html=1;exitX=1;exitY=0.5;exitDx=0;exitDy=0;entryX=0;entryY=0.5;entryDx=0;entryDy=0;fontColor=default;startArrow=none;startFill=0;sourcePerimeterSpacing=0;elbow=vertical;" edge="1" parent="1" source="IhEL-Qv9K_QajIlyC7i--27" target="IhEL-Qv9K_QajIlyC7i--36">
          <mxGeometry relative="1" as="geometry" />
        </mxCell>
        <mxCell id="IhEL-Qv9K_QajIlyC7i--27" value="pc" style="rounded=0;whiteSpace=wrap;html=1;labelBackgroundColor=none;fontColor=default;fillColor=#FCFCFC;" vertex="1" parent="1">
          <mxGeometry x="220" y="200" width="60" height="120" as="geometry" />
        </mxCell>
        <mxCell id="IhEL-Qv9K_QajIlyC7i--41" style="edgeStyle=none;rounded=0;jumpStyle=none;jumpSize=6;orthogonalLoop=1;jettySize=auto;html=1;exitX=1;exitY=0.5;exitDx=0;exitDy=0;entryX=0;entryY=0.5;entryDx=0;entryDy=0;fontColor=default;startArrow=none;startFill=0;sourcePerimeterSpacing=0;elbow=vertical;" edge="1" parent="1" source="IhEL-Qv9K_QajIlyC7i--36" target="IhEL-Qv9K_QajIlyC7i--37">
          <mxGeometry relative="1" as="geometry" />
        </mxCell>
        <mxCell id="IhEL-Qv9K_QajIlyC7i--36" value="INST MEM" style="rounded=0;whiteSpace=wrap;html=1;labelBackgroundColor=none;fontColor=default;fillColor=#FCFCFC;" vertex="1" parent="1">
          <mxGeometry x="360" y="200" width="120" height="120" as="geometry" />
        </mxCell>
        <mxCell id="IhEL-Qv9K_QajIlyC7i--37" value="IF/ID" style="rounded=0;whiteSpace=wrap;html=1;labelBackgroundColor=none;fontColor=default;fillColor=#FCFCFC;" vertex="1" parent="1">
          <mxGeometry x="560" y="80" width="40" height="360" as="geometry" />
        </mxCell>
        <mxCell id="IhEL-Qv9K_QajIlyC7i--38" value="IF/ID" style="rounded=0;whiteSpace=wrap;html=1;labelBackgroundColor=none;fontColor=default;fillColor=#FCFCFC;" vertex="1" parent="1">
          <mxGeometry x="1100" y="100" width="40" height="360" as="geometry" />
        </mxCell>
        <mxCell id="IhEL-Qv9K_QajIlyC7i--42" value="" style="endArrow=classic;html=1;rounded=0;fontColor=default;sourcePerimeterSpacing=0;elbow=vertical;jumpStyle=none;jumpSize=6;entryX=0.75;entryY=1;entryDx=0;entryDy=0;" edge="1" parent="1" target="IhEL-Qv9K_QajIlyC7i--52">
          <mxGeometry width="50" height="50" relative="1" as="geometry">
            <mxPoint x="320" y="260" as="sourcePoint" />
            <mxPoint x="400" y="140" as="targetPoint" />
            <Array as="points">
              <mxPoint x="320" y="143" />
            </Array>
          </mxGeometry>
        </mxCell>
        <mxCell id="IhEL-Qv9K_QajIlyC7i--51" style="edgeStyle=none;rounded=0;jumpStyle=none;jumpSize=6;orthogonalLoop=1;jettySize=auto;html=1;fontColor=default;startArrow=none;startFill=0;sourcePerimeterSpacing=0;elbow=vertical;entryX=0;entryY=0.25;entryDx=0;entryDy=0;" edge="1" parent="1" target="IhEL-Qv9K_QajIlyC7i--26">
          <mxGeometry relative="1" as="geometry">
            <mxPoint x="80" y="280" as="targetPoint" />
            <mxPoint x="440" y="120" as="sourcePoint" />
            <Array as="points">
              <mxPoint x="450" y="120" />
              <mxPoint x="450" y="60" />
              <mxPoint x="80" y="60" />
              <mxPoint x="80" y="230" />
            </Array>
          </mxGeometry>
        </mxCell>
        <mxCell id="IhEL-Qv9K_QajIlyC7i--46" value="" style="endArrow=classic;html=1;rounded=0;fontColor=default;sourcePerimeterSpacing=0;elbow=vertical;jumpStyle=none;jumpSize=6;entryX=0.25;entryY=1;entryDx=0;entryDy=0;" edge="1" parent="1" target="IhEL-Qv9K_QajIlyC7i--52">
          <mxGeometry relative="1" as="geometry">
            <mxPoint x="370" y="98" as="sourcePoint" />
            <mxPoint x="400" y="90" as="targetPoint" />
          </mxGeometry>
        </mxCell>
        <mxCell id="IhEL-Qv9K_QajIlyC7i--48" value="4" style="edgeLabel;resizable=0;html=1;align=left;verticalAlign=bottom;labelBackgroundColor=none;sketch=0;fontColor=default;fillColor=#FCFCFC;" connectable="0" vertex="1" parent="IhEL-Qv9K_QajIlyC7i--46">
          <mxGeometry x="-1" relative="1" as="geometry">
            <mxPoint x="-10" y="10" as="offset" />
          </mxGeometry>
        </mxCell>
        <mxCell id="IhEL-Qv9K_QajIlyC7i--50" style="edgeStyle=none;rounded=0;jumpStyle=none;jumpSize=6;orthogonalLoop=1;jettySize=auto;html=1;exitX=0.5;exitY=0;exitDx=0;exitDy=0;fontColor=default;startArrow=none;startFill=0;sourcePerimeterSpacing=0;elbow=vertical;" edge="1" parent="1">
          <mxGeometry relative="1" as="geometry">
            <mxPoint x="427.5" y="115" as="sourcePoint" />
            <mxPoint x="427.5" y="115" as="targetPoint" />
          </mxGeometry>
        </mxCell>
        <mxCell id="IhEL-Qv9K_QajIlyC7i--52" value="" style="shape=trapezoid;perimeter=trapezoidPerimeter;whiteSpace=wrap;html=1;fixedSize=1;labelBackgroundColor=none;sketch=0;fontColor=default;fillColor=#FCFCFC;rotation=90;" vertex="1" parent="1">
          <mxGeometry x="375" y="100" width="90" height="40" as="geometry" />
        </mxCell>
        <mxCell id="IhEL-Qv9K_QajIlyC7i--56" value="REGISTERS" style="rounded=0;whiteSpace=wrap;html=1;labelBackgroundColor=none;sketch=0;fontColor=default;fillColor=#FCFCFC;" vertex="1" parent="1">
          <mxGeometry x="820" y="200" width="170" height="140" as="geometry" />
        </mxCell>
        <mxCell id="IhEL-Qv9K_QajIlyC7i--59" value="" style="endArrow=classic;html=1;rounded=0;fontColor=default;sourcePerimeterSpacing=0;elbow=vertical;jumpStyle=none;jumpSize=6;" edge="1" parent="1">
          <mxGeometry relative="1" as="geometry">
            <mxPoint x="640" y="220" as="sourcePoint" />
            <mxPoint x="820" y="220" as="targetPoint" />
          </mxGeometry>
        </mxCell>
        <mxCell id="IhEL-Qv9K_QajIlyC7i--60" value="Label" style="edgeLabel;resizable=0;html=1;align=center;verticalAlign=middle;labelBackgroundColor=none;sketch=0;fontColor=default;fillColor=#FCFCFC;" connectable="0" vertex="1" parent="IhEL-Qv9K_QajIlyC7i--59">
          <mxGeometry relative="1" as="geometry" />
        </mxCell>
        <mxCell id="IhEL-Qv9K_QajIlyC7i--61" value="Source" style="edgeLabel;resizable=0;html=1;align=left;verticalAlign=bottom;labelBackgroundColor=none;sketch=0;fontColor=default;fillColor=#FCFCFC;" connectable="0" vertex="1" parent="IhEL-Qv9K_QajIlyC7i--59">
          <mxGeometry x="-1" relative="1" as="geometry" />
        </mxCell>
        <mxCell id="IhEL-Qv9K_QajIlyC7i--62" value="read1" style="edgeLabel;resizable=0;html=1;align=right;verticalAlign=bottom;labelBackgroundColor=none;sketch=0;fontColor=default;fillColor=#FCFCFC;" connectable="0" vertex="1" parent="IhEL-Qv9K_QajIlyC7i--59">
          <mxGeometry x="1" relative="1" as="geometry" />
        </mxCell>
        <mxCell id="IhEL-Qv9K_QajIlyC7i--63" value="" style="endArrow=classic;html=1;rounded=0;fontColor=default;sourcePerimeterSpacing=0;elbow=vertical;jumpStyle=none;jumpSize=6;" edge="1" parent="1">
          <mxGeometry relative="1" as="geometry">
            <mxPoint x="640" y="250" as="sourcePoint" />
            <mxPoint x="820" y="250" as="targetPoint" />
          </mxGeometry>
        </mxCell>
        <mxCell id="IhEL-Qv9K_QajIlyC7i--64" value="Label" style="edgeLabel;resizable=0;html=1;align=center;verticalAlign=middle;labelBackgroundColor=none;sketch=0;fontColor=default;fillColor=#FCFCFC;" connectable="0" vertex="1" parent="IhEL-Qv9K_QajIlyC7i--63">
          <mxGeometry relative="1" as="geometry" />
        </mxCell>
        <mxCell id="IhEL-Qv9K_QajIlyC7i--65" value="Source" style="edgeLabel;resizable=0;html=1;align=left;verticalAlign=bottom;labelBackgroundColor=none;sketch=0;fontColor=default;fillColor=#FCFCFC;" connectable="0" vertex="1" parent="IhEL-Qv9K_QajIlyC7i--63">
          <mxGeometry x="-1" relative="1" as="geometry" />
        </mxCell>
        <mxCell id="IhEL-Qv9K_QajIlyC7i--66" value="read2" style="edgeLabel;resizable=0;html=1;align=right;verticalAlign=bottom;labelBackgroundColor=none;sketch=0;fontColor=default;fillColor=#FCFCFC;" connectable="0" vertex="1" parent="IhEL-Qv9K_QajIlyC7i--63">
          <mxGeometry x="1" relative="1" as="geometry" />
        </mxCell>
        <mxCell id="IhEL-Qv9K_QajIlyC7i--67" value="" style="endArrow=classic;html=1;rounded=0;fontColor=default;sourcePerimeterSpacing=0;elbow=vertical;jumpStyle=none;jumpSize=6;" edge="1" parent="1">
          <mxGeometry relative="1" as="geometry">
            <mxPoint x="660" y="279.58" as="sourcePoint" />
            <mxPoint x="820" y="279.58" as="targetPoint" />
          </mxGeometry>
        </mxCell>
        <mxCell id="IhEL-Qv9K_QajIlyC7i--68" value="Label" style="edgeLabel;resizable=0;html=1;align=center;verticalAlign=middle;labelBackgroundColor=none;sketch=0;fontColor=default;fillColor=#FCFCFC;" connectable="0" vertex="1" parent="IhEL-Qv9K_QajIlyC7i--67">
          <mxGeometry relative="1" as="geometry" />
        </mxCell>
        <mxCell id="IhEL-Qv9K_QajIlyC7i--69" value="Source" style="edgeLabel;resizable=0;html=1;align=left;verticalAlign=bottom;labelBackgroundColor=none;sketch=0;fontColor=default;fillColor=#FCFCFC;" connectable="0" vertex="1" parent="IhEL-Qv9K_QajIlyC7i--67">
          <mxGeometry x="-1" relative="1" as="geometry" />
        </mxCell>
        <mxCell id="IhEL-Qv9K_QajIlyC7i--70" value="write" style="edgeLabel;resizable=0;html=1;align=right;verticalAlign=bottom;labelBackgroundColor=none;sketch=0;fontColor=default;fillColor=#FCFCFC;" connectable="0" vertex="1" parent="IhEL-Qv9K_QajIlyC7i--67">
          <mxGeometry x="1" relative="1" as="geometry" />
        </mxCell>
        <mxCell id="IhEL-Qv9K_QajIlyC7i--71" value="" style="endArrow=classic;html=1;rounded=0;fontColor=default;sourcePerimeterSpacing=0;elbow=vertical;jumpStyle=none;jumpSize=6;" edge="1" parent="1">
          <mxGeometry relative="1" as="geometry">
            <mxPoint x="660" y="309.99999999999994" as="sourcePoint" />
            <mxPoint x="820" y="309.99999999999994" as="targetPoint" />
          </mxGeometry>
        </mxCell>
        <mxCell id="IhEL-Qv9K_QajIlyC7i--72" value="Label" style="edgeLabel;resizable=0;html=1;align=center;verticalAlign=middle;labelBackgroundColor=none;sketch=0;fontColor=default;fillColor=#FCFCFC;" connectable="0" vertex="1" parent="IhEL-Qv9K_QajIlyC7i--71">
          <mxGeometry relative="1" as="geometry" />
        </mxCell>
        <mxCell id="IhEL-Qv9K_QajIlyC7i--73" value="Source" style="edgeLabel;resizable=0;html=1;align=left;verticalAlign=bottom;labelBackgroundColor=none;sketch=0;fontColor=default;fillColor=#FCFCFC;" connectable="0" vertex="1" parent="IhEL-Qv9K_QajIlyC7i--71">
          <mxGeometry x="-1" relative="1" as="geometry" />
        </mxCell>
        <mxCell id="IhEL-Qv9K_QajIlyC7i--74" value="write data" style="edgeLabel;resizable=0;html=1;align=right;verticalAlign=bottom;labelBackgroundColor=none;sketch=0;fontColor=default;fillColor=#FCFCFC;" connectable="0" vertex="1" parent="IhEL-Qv9K_QajIlyC7i--71">
          <mxGeometry x="1" relative="1" as="geometry" />
        </mxCell>
        <mxCell id="IhEL-Qv9K_QajIlyC7i--75" value="" style="endArrow=classic;html=1;rounded=0;fontColor=default;sourcePerimeterSpacing=0;elbow=vertical;jumpStyle=none;jumpSize=6;" edge="1" parent="1">
          <mxGeometry relative="1" as="geometry">
            <mxPoint x="990" y="220" as="sourcePoint" />
            <mxPoint x="1150" y="220" as="targetPoint" />
          </mxGeometry>
        </mxCell>
        <mxCell id="IhEL-Qv9K_QajIlyC7i--76" value="Label" style="edgeLabel;resizable=0;html=1;align=center;verticalAlign=middle;labelBackgroundColor=none;sketch=0;fontColor=default;fillColor=#FCFCFC;" connectable="0" vertex="1" parent="IhEL-Qv9K_QajIlyC7i--75">
          <mxGeometry relative="1" as="geometry" />
        </mxCell>
        <mxCell id="IhEL-Qv9K_QajIlyC7i--77" value="read1 data" style="edgeLabel;resizable=0;html=1;align=left;verticalAlign=bottom;labelBackgroundColor=none;sketch=0;fontColor=default;fillColor=#FCFCFC;" connectable="0" vertex="1" parent="IhEL-Qv9K_QajIlyC7i--75">
          <mxGeometry x="-1" relative="1" as="geometry" />
        </mxCell>
        <mxCell id="IhEL-Qv9K_QajIlyC7i--78" value="read1" style="edgeLabel;resizable=0;html=1;align=right;verticalAlign=bottom;labelBackgroundColor=none;sketch=0;fontColor=default;fillColor=#FCFCFC;" connectable="0" vertex="1" parent="IhEL-Qv9K_QajIlyC7i--75">
          <mxGeometry x="1" relative="1" as="geometry" />
        </mxCell>
        <mxCell id="IhEL-Qv9K_QajIlyC7i--79" value="" style="endArrow=classic;html=1;rounded=0;fontColor=default;sourcePerimeterSpacing=0;elbow=vertical;jumpStyle=none;jumpSize=6;" edge="1" parent="1">
          <mxGeometry relative="1" as="geometry">
            <mxPoint x="990" y="250" as="sourcePoint" />
            <mxPoint x="1150" y="250" as="targetPoint" />
          </mxGeometry>
        </mxCell>
        <mxCell id="IhEL-Qv9K_QajIlyC7i--80" value="Label" style="edgeLabel;resizable=0;html=1;align=center;verticalAlign=middle;labelBackgroundColor=none;sketch=0;fontColor=default;fillColor=#FCFCFC;" connectable="0" vertex="1" parent="IhEL-Qv9K_QajIlyC7i--79">
          <mxGeometry relative="1" as="geometry" />
        </mxCell>
        <mxCell id="IhEL-Qv9K_QajIlyC7i--81" value="read2 data" style="edgeLabel;resizable=0;html=1;align=left;verticalAlign=bottom;labelBackgroundColor=none;sketch=0;fontColor=default;fillColor=#FCFCFC;" connectable="0" vertex="1" parent="IhEL-Qv9K_QajIlyC7i--79">
          <mxGeometry x="-1" relative="1" as="geometry" />
        </mxCell>
        <mxCell id="IhEL-Qv9K_QajIlyC7i--82" value="read1" style="edgeLabel;resizable=0;html=1;align=right;verticalAlign=bottom;labelBackgroundColor=none;sketch=0;fontColor=default;fillColor=#FCFCFC;" connectable="0" vertex="1" parent="IhEL-Qv9K_QajIlyC7i--79">
          <mxGeometry x="1" relative="1" as="geometry" />
        </mxCell>
        <mxCell id="IhEL-Qv9K_QajIlyC7i--85" value="" style="endArrow=none;html=1;rounded=0;fontColor=default;sourcePerimeterSpacing=0;elbow=vertical;jumpStyle=none;jumpSize=6;exitX=1;exitY=0.5;exitDx=0;exitDy=0;" edge="1" parent="1" source="IhEL-Qv9K_QajIlyC7i--37">
          <mxGeometry width="50" height="50" relative="1" as="geometry">
            <mxPoint x="810" y="260" as="sourcePoint" />
            <mxPoint x="640" y="260" as="targetPoint" />
          </mxGeometry>
        </mxCell>
        <mxCell id="IhEL-Qv9K_QajIlyC7i--86" value="" style="endArrow=classic;html=1;rounded=0;fontColor=default;sourcePerimeterSpacing=0;elbow=vertical;jumpStyle=none;jumpSize=6;" edge="1" parent="1">
          <mxGeometry width="50" height="50" relative="1" as="geometry">
            <mxPoint x="640" y="260" as="sourcePoint" />
            <mxPoint x="850" y="70" as="targetPoint" />
            <Array as="points">
              <mxPoint x="640" y="70" />
            </Array>
          </mxGeometry>
        </mxCell>
        <mxCell id="IhEL-Qv9K_QajIlyC7i--87" value="" style="endArrow=classic;html=1;rounded=0;fontColor=default;sourcePerimeterSpacing=0;elbow=vertical;jumpStyle=none;jumpSize=6;" edge="1" parent="1">
          <mxGeometry width="50" height="50" relative="1" as="geometry">
            <mxPoint x="640" y="260" as="sourcePoint" />
            <mxPoint x="760" y="400" as="targetPoint" />
            <Array as="points">
              <mxPoint x="640" y="400" />
            </Array>
          </mxGeometry>
        </mxCell>
        <mxCell id="IhEL-Qv9K_QajIlyC7i--88" value="" style="rounded=0;whiteSpace=wrap;html=1;labelBackgroundColor=none;sketch=0;fontColor=default;fillColor=#FCFCFC;" vertex="1" parent="1">
          <mxGeometry x="850" y="40" width="120" height="60" as="geometry" />
        </mxCell>
      </root>
    </mxGraphModel>
  </diagram>
</mxfile>
